<?xml version="1.0" encoding="UTF-8"?>
<svg width="158px" height="32px" viewBox="0 0 158 32" version="1.1" xmlns="http://www.w3.org/2000/svg" xmlns:xlink="http://www.w3.org/1999/xlink">
    <!-- Generator: Sketch 48.2 (47327) - http://www.bohemiancoding.com/sketch -->
    <title>logo</title>
    <desc>Created with Sketch.</desc>
    <defs></defs>
    <g id="Desktop" stroke="none" stroke-width="1" fill="none" fill-rule="evenodd" transform="translate(-19.000000, -22.000000)">
        <g id="navigation" fill="#FFFFFF">
            <g id="logo" transform="translate(19.000000, 14.000000)">
                <path d="M42.794,14.716 L45.692,14.716 L45.692,28.424 L52.615,28.424 L52.615,31 L42.794,31 L42.794,14.716 Z M54.455,19.96 L57.215,19.96 L57.215,31 L54.455,31 L54.455,19.96 Z M54.064,16.211 C54.064,15.7663311 54.2288317,15.3791683 54.5585,15.0495 C54.8881683,14.7198317 55.3059975,14.555 55.812,14.555 C56.3180025,14.555 56.7434983,14.7121651 57.0885,15.0265 C57.4335017,15.3408349 57.606,15.7356643 57.606,16.211 C57.606,16.6863357 57.4335017,17.0811651 57.0885,17.3955 C56.7434983,17.7098349 56.3180025,17.867 55.812,17.867 C55.3059975,17.867 54.8881683,17.7021683 54.5585,17.3725 C54.2288317,17.0428317 54.064,16.6556689 54.064,16.211 Z M71.797,19.96 L71.797,30.011 C71.797,31.0076716 71.6743346,31.908496 71.429,32.7135 C71.1836654,33.518504 70.8041692,34.2008305 70.2905,34.7605 C69.7768308,35.3201695 69.1290039,35.7533318 68.347,36.06 C67.5649961,36.3666682 66.6373387,36.52 65.564,36.52 C65.1193311,36.52 64.6478358,36.481667 64.1495,36.405 C63.6511642,36.328333 63.1605024,36.2133341 62.6775,36.06 C62.1944976,35.9066659 61.7306689,35.7150011 61.286,35.485 C60.8413311,35.2549988 60.4426684,34.9943348 60.09,34.703 L61.677,32.564 C62.2136694,33.0700025 62.81933,33.4571653 63.494,33.7255 C64.16867,33.9938347 64.8509966,34.128 65.541,34.128 C66.2003366,34.128 66.7561644,34.0321676 67.2085,33.8405 C67.6608356,33.6488324 68.0211653,33.384335 68.2895,33.047 C68.5578347,32.709665 68.7494994,32.3110023 68.8645,31.851 C68.9795006,31.3909977 69.037,30.8850028 69.037,30.333 L69.037,29.528 L68.991,29.528 C68.5923313,30.0646693 68.0825031,30.4748319 67.4615,30.7585 C66.8404969,31.0421681 66.1466705,31.184 65.38,31.184 C64.5519959,31.184 63.80067,31.0306682 63.126,30.724 C62.45133,30.4173318 61.880169,30.0033359 61.4125,29.482 C60.944831,28.9606641 60.580668,28.3511702 60.32,27.6535 C60.059332,26.9558298 59.929,26.2160039 59.929,25.434 C59.929,24.6366627 60.0554987,23.8853369 60.3085,23.18 C60.5615013,22.4746631 60.921831,21.8613359 61.3895,21.34 C61.857169,20.8186641 62.4244967,20.4046682 63.0915,20.098 C63.7585033,19.7913318 64.5059959,19.638 65.334,19.638 C66.1160039,19.638 66.84433,19.7989984 67.519,20.121 C68.19367,20.4430016 68.7303313,20.94133 69.129,21.616 L69.175,21.616 L69.175,19.96 L71.797,19.96 Z M65.909,21.892 C65.4029975,21.892 64.954502,21.9839991 64.5635,22.168 C64.172498,22.3520009 63.8428347,22.6011651 63.5745,22.9155 C63.3061653,23.2298349 63.0991674,23.6016645 62.9535,24.031 C62.8078326,24.4603355 62.735,24.9203309 62.735,25.411 C62.735,25.8556689 62.8078326,26.2849979 62.9535,26.699 C63.0991674,27.1130021 63.3061653,27.4848317 63.5745,27.8145 C63.8428347,28.1441683 64.172498,28.4086657 64.5635,28.608 C64.954502,28.8073343 65.3953309,28.907 65.886,28.907 C66.3920025,28.907 66.8481646,28.8111676 67.2545,28.6195 C67.6608354,28.4278324 68.0058319,28.1710016 68.2895,27.849 C68.5731681,27.5269984 68.7916659,27.1551688 68.945,26.7335 C69.0983341,26.3118312 69.175,25.8710023 69.175,25.411 C69.175,24.9356643 69.0983341,24.4833355 68.945,24.054 C68.7916659,23.6246645 68.5731681,23.2490016 68.2895,22.927 C68.0058319,22.6049984 67.6646687,22.3520009 67.266,22.168 C66.8673313,21.9839991 66.4150025,21.892 65.909,21.892 Z M81.25,19.638 C81.9706703,19.638 82.5878308,19.7644987 83.1015,20.0175 C83.6151692,20.2705013 84.0368317,20.6039979 84.3665,21.018 C84.6961683,21.4320021 84.9376659,21.9073306 85.091,22.444 C85.2443341,22.9806693 85.321,23.5326638 85.321,24.1 L85.321,31 L82.561,31 L82.561,24.928 C82.561,24.6059984 82.5380002,24.2725017 82.492,23.9275 C82.4459998,23.5824983 82.3501674,23.2681681 82.2045,22.9845 C82.0588326,22.7008319 81.8518347,22.4670009 81.5835,22.283 C81.3151653,22.0989991 80.9586689,22.007 80.514,22.007 C80.0693311,22.007 79.6860016,22.0913325 79.364,22.26 C79.0419984,22.4286675 78.7736677,22.6548319 78.559,22.9385 C78.3443323,23.2221681 78.1833339,23.5403316 78.076,23.893 C77.9686661,24.2456684 77.915,24.6059982 77.915,24.974 L77.915,31 L75.155,31 L75.155,13.612 L77.915,13.612 L77.915,21.501 L77.961,21.501 C78.0683339,21.2709988 78.225499,21.0448344 78.4325,20.8225 C78.639501,20.6001656 78.8809986,20.4008342 79.157,20.2245 C79.4330014,20.0481658 79.7473316,19.9063339 80.1,19.799 C80.4526684,19.6916661 80.8359979,19.638 81.25,19.638 Z M86.954,22.168 L86.954,19.96 L88.886,19.96 L88.886,16.763 L91.6,16.763 L91.6,19.96 L94.36,19.96 L94.36,22.168 L91.6,22.168 L91.6,27.297 C91.6,27.7876691 91.6881658,28.1939984 91.8645,28.516 C92.0408342,28.8380016 92.4356636,28.999 93.049,28.999 C93.2330009,28.999 93.4323323,28.9798335 93.647,28.9415 C93.8616677,28.9031665 94.0533325,28.8456671 94.222,28.769 L94.314,30.931 C94.0686654,31.0230005 93.777335,31.0958331 93.44,31.1495 C93.102665,31.2031669 92.7806682,31.23 92.474,31.23 C91.7379963,31.23 91.1400023,31.126501 90.68,30.9195 C90.2199977,30.712499 89.8558347,30.4288351 89.5875,30.0685 C89.3191653,29.7081649 89.1351672,29.294169 89.0355,28.8265 C88.9358328,28.358831 88.886,27.8566694 88.886,27.32 L88.886,22.168 L86.954,22.168 Z M99.167,13.612 L99.167,21.363 L99.236,21.363 C99.3740007,21.1789991 99.5503323,20.9873343 99.765,20.788 C99.9796677,20.5886657 100.236499,20.4046675 100.5355,20.236 C100.834501,20.0673325 101.183331,19.9255006 101.582,19.8105 C101.980669,19.6954994 102.432997,19.638 102.939,19.638 C103.721004,19.638 104.441663,19.7874985 105.101,20.0865 C105.760337,20.3855015 106.327664,20.7956641 106.803,21.317 C107.278336,21.8383359 107.646332,22.4516631 107.907,23.157 C108.167668,23.8623369 108.298,24.6213293 108.298,25.434 C108.298,26.2466707 108.171501,27.0094964 107.9185,27.7225 C107.665499,28.4355036 107.305169,29.0564974 106.8375,29.5855 C106.369831,30.1145026 105.802503,30.5361651 105.1355,30.8505 C104.468497,31.1648349 103.713338,31.322 102.87,31.322 C102.087996,31.322 101.355837,31.153335 100.6735,30.816 C99.9911633,30.478665 99.4583353,29.9880032 99.075,29.344 L99.029,29.344 L99.029,31 L96.407,31 L96.407,13.612 L99.167,13.612 Z M105.492,25.434 C105.492,25.0046645 105.426834,24.5791688 105.2965,24.1575 C105.166166,23.7358312 104.970668,23.356335 104.71,23.019 C104.449332,22.681665 104.119669,22.409501 103.721,22.2025 C103.322331,21.995499 102.854669,21.892 102.318,21.892 C101.811997,21.892 101.359669,21.9993323 100.961,22.214 C100.562331,22.4286677 100.221168,22.704665 99.9375,23.042 C99.6538319,23.379335 99.4391674,23.7626645 99.2935,24.192 C99.1478326,24.6213355 99.075,25.0506645 99.075,25.48 C99.075,25.9093355 99.1478326,26.3348312 99.2935,26.7565 C99.4391674,27.1781688 99.6538319,27.557665 99.9375,27.895 C100.221168,28.232335 100.562331,28.504499 100.961,28.7115 C101.359669,28.918501 101.811997,29.022 102.318,29.022 C102.854669,29.022 103.322331,28.9146677 103.721,28.7 C104.119669,28.4853323 104.449332,28.209335 104.71,27.872 C104.970668,27.534665 105.166166,27.1513355 105.2965,26.722 C105.426834,26.2926645 105.492,25.8633355 105.492,25.434 Z M110.322,25.434 C110.322,24.5599956 110.479165,23.7665036 110.7935,23.0535 C111.107835,22.3404964 111.533331,21.7310025 112.07,21.225 C112.606669,20.7189975 113.242996,20.3280014 113.979,20.052 C114.715004,19.7759986 115.496996,19.638 116.325,19.638 C117.153004,19.638 117.934996,19.7759986 118.671,20.052 C119.407004,20.3280014 120.043331,20.7189975 120.58,21.225 C121.116669,21.7310025 121.542165,22.3404964 121.8565,23.0535 C122.170835,23.7665036 122.328,24.5599956 122.328,25.434 C122.328,26.3080044 122.170835,27.1053297 121.8565,27.826 C121.542165,28.5466703 121.116669,29.1638308 120.58,29.6775 C120.043331,30.1911692 119.407004,30.5936652 118.671,30.885 C117.934996,31.1763348 117.153004,31.322 116.325,31.322 C115.496996,31.322 114.715004,31.1763348 113.979,30.885 C113.242996,30.5936652 112.606669,30.1911692 112.07,29.6775 C111.533331,29.1638308 111.107835,28.5466703 110.7935,27.826 C110.479165,27.1053297 110.322,26.3080044 110.322,25.434 Z M113.128,25.434 C113.128,25.8633355 113.193166,26.2926645 113.3235,26.722 C113.453834,27.1513355 113.649332,27.534665 113.91,27.872 C114.170668,28.209335 114.500331,28.4853323 114.899,28.7 C115.297669,28.9146677 115.772997,29.022 116.325,29.022 C116.877003,29.022 117.352331,28.9146677 117.751,28.7 C118.149669,28.4853323 118.479332,28.209335 118.74,27.872 C119.000668,27.534665 119.196166,27.1513355 119.3265,26.722 C119.456834,26.2926645 119.522,25.8633355 119.522,25.434 C119.522,25.0046645 119.456834,24.5791688 119.3265,24.1575 C119.196166,23.7358312 119.000668,23.356335 118.74,23.019 C118.479332,22.681665 118.149669,22.409501 117.751,22.2025 C117.352331,21.995499 116.877003,21.892 116.325,21.892 C115.772997,21.892 115.297669,21.995499 114.899,22.2025 C114.500331,22.409501 114.170668,22.681665 113.91,23.019 C113.649332,23.356335 113.453834,23.7358312 113.3235,24.1575 C113.193166,24.5791688 113.128,25.0046645 113.128,25.434 Z M124.352,25.434 C124.352,24.5599956 124.509165,23.7665036 124.8235,23.0535 C125.137835,22.3404964 125.563331,21.7310025 126.1,21.225 C126.636669,20.7189975 127.272996,20.3280014 128.009,20.052 C128.745004,19.7759986 129.526996,19.638 130.355,19.638 C131.183004,19.638 131.964996,19.7759986 132.701,20.052 C133.437004,20.3280014 134.073331,20.7189975 134.61,21.225 C135.146669,21.7310025 135.572165,22.3404964 135.8865,23.0535 C136.200835,23.7665036 136.358,24.5599956 136.358,25.434 C136.358,26.3080044 136.200835,27.1053297 135.8865,27.826 C135.572165,28.5466703 135.146669,29.1638308 134.61,29.6775 C134.073331,30.1911692 133.437004,30.5936652 132.701,30.885 C131.964996,31.1763348 131.183004,31.322 130.355,31.322 C129.526996,31.322 128.745004,31.1763348 128.009,30.885 C127.272996,30.5936652 126.636669,30.1911692 126.1,29.6775 C125.563331,29.1638308 125.137835,28.5466703 124.8235,27.826 C124.509165,27.1053297 124.352,26.3080044 124.352,25.434 Z M127.158,25.434 C127.158,25.8633355 127.223166,26.2926645 127.3535,26.722 C127.483834,27.1513355 127.679332,27.534665 127.94,27.872 C128.200668,28.209335 128.530331,28.4853323 128.929,28.7 C129.327669,28.9146677 129.802997,29.022 130.355,29.022 C130.907003,29.022 131.382331,28.9146677 131.781,28.7 C132.179669,28.4853323 132.509332,28.209335 132.77,27.872 C133.030668,27.534665 133.226166,27.1513355 133.3565,26.722 C133.486834,26.2926645 133.552,25.8633355 133.552,25.434 C133.552,25.0046645 133.486834,24.5791688 133.3565,24.1575 C133.226166,23.7358312 133.030668,23.356335 132.77,23.019 C132.509332,22.681665 132.179669,22.409501 131.781,22.2025 C131.382331,21.995499 130.907003,21.892 130.355,21.892 C129.802997,21.892 129.327669,21.995499 128.929,22.2025 C128.530331,22.409501 128.200668,22.681665 127.94,23.019 C127.679332,23.356335 127.483834,23.7358312 127.3535,24.1575 C127.223166,24.5791688 127.158,25.0046645 127.158,25.434 Z M137.439,22.168 L137.439,19.96 L139.371,19.96 L139.371,16.763 L142.085,16.763 L142.085,19.96 L144.845,19.96 L144.845,22.168 L142.085,22.168 L142.085,27.297 C142.085,27.7876691 142.173166,28.1939984 142.3495,28.516 C142.525834,28.8380016 142.920664,28.999 143.534,28.999 C143.718001,28.999 143.917332,28.9798335 144.132,28.9415 C144.346668,28.9031665 144.538332,28.8456671 144.707,28.769 L144.799,30.931 C144.553665,31.0230005 144.262335,31.0958331 143.925,31.1495 C143.587665,31.2031669 143.265668,31.23 142.959,31.23 C142.222996,31.23 141.625002,31.126501 141.165,30.9195 C140.704998,30.712499 140.340835,30.4288351 140.0725,30.0685 C139.804165,29.7081649 139.620167,29.294169 139.5205,28.8265 C139.420833,28.358831 139.371,27.8566694 139.371,27.32 L139.371,22.168 L137.439,22.168 Z M152.987,19.638 C153.70767,19.638 154.324831,19.7644987 154.8385,20.0175 C155.352169,20.2705013 155.773832,20.6039979 156.1035,21.018 C156.433168,21.4320021 156.674666,21.9073306 156.828,22.444 C156.981334,22.9806693 157.058,23.5326638 157.058,24.1 L157.058,31 L154.298,31 L154.298,24.928 C154.298,24.6059984 154.275,24.2725017 154.229,23.9275 C154.183,23.5824983 154.087167,23.2681681 153.9415,22.9845 C153.795833,22.7008319 153.588835,22.4670009 153.3205,22.283 C153.052165,22.0989991 152.695669,22.007 152.251,22.007 C151.806331,22.007 151.423002,22.0913325 151.101,22.26 C150.778998,22.4286675 150.510668,22.6548319 150.296,22.9385 C150.081332,23.2221681 149.920334,23.5403316 149.813,23.893 C149.705666,24.2456684 149.652,24.6059982 149.652,24.974 L149.652,31 L146.892,31 L146.892,13.612 L149.652,13.612 L149.652,21.501 L149.698,21.501 C149.805334,21.2709988 149.962499,21.0448344 150.1695,20.8225 C150.376501,20.6001656 150.617999,20.4008342 150.894,20.2245 C151.170001,20.0481658 151.484332,19.9063339 151.837,19.799 C152.189668,19.6916661 152.572998,19.638 152.987,19.638 Z" id="Lightbooth"></path>
                <path d="M4.13076045,14.0173393 C4.62680716,13.8061194 5.1804593,13.6653061 5.82371988,13.5948995 C6.17255274,13.5564959 6.52778619,13.5372941 6.89902115,13.5372941 C7.10704074,13.5372941 7.32146094,13.5436947 7.53908143,13.5564959 C7.84631036,13.5724974 8.1631402,13.6013001 8.50237215,13.642904 C10.1793301,13.8509236 11.9170937,14.3181676 13.8148725,15.0702384 C14.1093002,15.1854493 14.4037279,15.3134614 14.6949553,15.4414734 C12.3395335,16.4271662 10.1185244,17.6336799 8.07993237,19.0386122 C6.3261672,20.2451258 4.85402856,21.4868427 3.58030861,22.8341696 C2.57541397,23.8966697 1.79134013,24.9335673 1.18008256,26.0056683 C0.860052425,26.5721216 0.607228615,27.1161729 0.418410833,27.6538235 C0.239193955,26.8857512 0.117582502,26.1080779 0.0535764742,25.3240041 C-0.0264310606,24.3479122 -0.0168301564,23.3590191 0.0823791867,22.3829271 C0.3416036,19.8322869 1.18328287,17.4416618 2.57861427,15.278258 C2.93704803,14.7246059 3.44589595,14.311767 4.13076045,14.0173393 Z M24.0622375,27.1193732 C24.1902496,26.2008867 24.2734574,25.2663987 24.3086607,24.3383113 C24.3374634,23.6406456 24.3662662,22.8245687 24.3598656,22.0180928 C24.3310628,19.2882357 24.0206336,16.8336045 23.4125763,14.5165863 C23.0381411,13.0892519 22.5740974,11.8571358 21.9980431,10.7466313 C21.5788036,9.93695501 21.1243608,9.25529081 20.6219135,8.66963566 C21.8732314,9.04407092 23.0573429,9.56572005 24.1550463,10.2217818 C26.7824937,11.7931298 28.8306866,13.9789357 30.2516204,16.721594 C30.5780512,17.3520533 30.6772605,18.0433184 30.5524487,18.8433938 C30.4180361,19.7042749 30.0756038,20.5683562 29.4771475,21.5572494 C28.8850917,22.5333413 28.1202197,23.4934317 27.1409275,24.4919257 C26.2256413,25.4264138 25.2111457,26.3032963 24.0558369,27.1609771 C24.0590372,27.1481759 24.0590372,27.1321744 24.0622375,27.1193732 Z M30.4756415,22.5685446 C30.9652876,21.8004723 31.330122,21.0708036 31.5829458,20.3443351 C31.7365603,21.0035972 31.8485708,21.6692599 31.9157771,22.3381229 C32.0181868,23.3590191 32.0277877,24.3767149 31.9413795,25.365608 C31.7109578,27.9930555 30.8756792,30.4444863 29.461146,32.6590949 C29.0483071,33.3087561 28.4594516,33.7663992 27.6625766,34.0608269 C27.124926,34.2592456 26.5296699,34.380857 25.8384048,34.4352622 C25.3935629,34.4704655 24.9231186,34.4736658 24.4398731,34.4480634 C24.2958595,34.4384625 24.1422451,34.4256613 23.9918309,34.4128601 C23.377373,34.3584549 22.7277118,34.2592456 22.0620492,34.1184323 C20.5163036,33.7952019 18.9481559,33.2831537 17.2968004,32.5662862 C19.3065897,31.7246069 21.2235702,30.7197123 23.0061381,29.5740044 C24.8783144,28.3674907 26.4656639,27.1129726 27.8641956,25.736843 C28.9362965,24.6807435 29.790777,23.6438459 30.4756415,22.5685446 Z M19.8698427,9.92415381 C20.3594888,10.5706147 20.7915295,11.3322864 21.1851666,12.2539732 C21.7196169,13.4956902 22.1292555,14.8750201 22.4396847,16.4719705 C22.5708971,17.1440337 22.6797073,17.8481001 22.7661155,18.6001709 C21.0251515,17.2720458 19.1497749,16.084734 17.1751889,15.0702384 C15.4182235,14.1677535 13.629255,13.4476856 11.8530877,12.9324371 C10.9954069,12.6828136 10.1473271,12.4907955 9.32804991,12.3595832 C8.73919445,12.2635741 8.20154382,12.2059687 7.6894956,12.177166 C7.52948053,12.1707654 7.36946546,12.1643648 7.21265069,12.1611645 C7.12624255,12.1579642 7.04303472,12.1579642 6.95982688,12.1579642 C6.26536148,12.1579642 5.64450301,12.209169 5.06524845,12.3179792 C7.2382531,10.276187 9.84329843,8.92886007 12.8259793,8.3048013 C13.7508664,8.10958292 14.6853544,8.01037357 15.6038409,8.00077267 C16.0454825,7.99757237 16.4903244,8.00397297 16.9415669,8.02637508 C17.4216121,8.05517779 17.8952567,8.21199256 18.3817025,8.51282089 C18.9097523,8.83925163 19.3993984,9.30009503 19.8698427,9.92415381 Z M7.9359188,20.8467825 C7.81750765,21.7396665 7.73429982,22.6741546 7.67669439,23.6310447 C7.62868987,24.5015266 7.61268836,25.3816095 7.62868987,26.2392903 C7.67669439,28.6331157 7.9327185,30.7933192 8.41276371,32.8383118 C8.74559506,34.252845 9.16483454,35.4945619 9.68968397,36.6306689 C10.1377262,37.6003602 10.6305726,38.4100365 11.1906253,39.1077022 C11.251431,39.1845094 11.3122368,39.2581164 11.3730425,39.328523 C10.3649476,39.0276947 9.40165684,38.6340576 8.49917185,38.1476118 C5.57729668,36.5794641 3.31468359,34.2816477 1.76573772,31.3213689 C1.44570758,30.7133117 1.33369703,30.0604502 1.42330547,29.3275811 C1.51611421,28.5627091 1.77533862,27.8010374 2.24258263,26.9305554 C2.70342603,26.0760749 3.31148329,25.2215945 4.10195774,24.3223098 C5.1676581,23.1093955 6.42217625,21.9732885 7.9359188,20.8467825 Z M24.2894589,35.8177924 C24.6958972,35.8401945 25.0991352,35.8465951 25.4831713,35.824193 C26.0080208,35.8049912 26.4848657,35.7569866 26.9265073,35.6737788 C24.651093,37.8115801 21.9244362,39.1845094 18.7945414,39.7573634 C17.6712356,39.965383 16.5063259,40.0389899 15.232606,39.9845848 L15.1846015,39.9813845 C14.4389312,39.9397806 13.7636676,39.6613543 13.1204071,39.1301043 C12.5859567,38.6884627 12.1059115,38.1156088 11.6482684,37.3763392 C11.0754145,36.4450514 10.5953693,35.356949 10.1857307,34.051226 C9.78569301,32.7743057 9.49446558,31.4365798 9.3024475,29.9676414 C9.27684509,29.7852242 9.25444298,29.5996068 9.23524117,29.410789 C10.8001886,30.6045014 12.4643453,31.6766024 14.1893077,32.6046898 C16.0902868,33.6255859 17.9208591,34.4000589 19.7834346,34.9665122 C20.9099406,35.3121448 21.9660401,35.5489671 23.0125387,35.6929806 C23.4541803,35.7537863 23.8830206,35.7953903 24.2894589,35.8177924 Z" id="Combined-Shape"></path>
            </g>
        </g>
    </g>
</svg>